<svg xmlns="http://www.w3.org/2000/svg" width="24" height="24"><path fill="#efeeee" d="M4 0v24h14l6-6V0z"/><path fill="#ababab" d="M24 18h-6v6z"/><path fill="#dededd" d="M18 18l-6 6h6z"/><path fill="#cb5641" d="M0 6v7h16V6z"/><g fill="#fff"><path d="M3.43 10.45c0 .46-.1.78-.32.98-.2.19-.53.29-.97.29-.23 0-.42-.03-.56-.1a.83.83 0 0 1-.35-.26.98.98 0 0 1-.18-.4 2.25 2.25 0 0 1-.04-.48v-.19h.79v.14c0 .23.02.4.07.5.05.11.15.17.31.17s.26-.06.31-.17c.05-.1.08-.27.08-.5V7.37h.86v3.08zM5.05 10.44c0 .1 0 .19.02.27.02.08.05.15.1.2.04.06.1.1.17.14.07.03.17.05.28.05.13 0 .25-.04.36-.13.1-.09.16-.22.16-.4 0-.1-.02-.18-.04-.25a.48.48 0 0 0-.13-.19.91.91 0 0 0-.24-.15c-.1-.05-.22-.1-.36-.14a3.1 3.1 0 0 1-.5-.21 1.3 1.3 0 0 1-.35-.27.94.94 0 0 1-.2-.35 1.47 1.47 0 0 1-.07-.47c0-.42.11-.74.35-.95.24-.2.56-.3.97-.3.2 0 .37.01.53.05.17.05.3.11.42.2.12.1.21.22.28.37.07.14.1.32.1.52v.12h-.83c0-.2-.04-.36-.1-.47-.08-.1-.2-.16-.37-.16a.6.6 0 0 0-.24.04.41.41 0 0 0-.15.1.4.4 0 0 0-.08.17.82.82 0 0 0-.02.19c0 .13.03.24.08.33.06.09.18.17.36.25l.67.29c.16.07.3.14.4.22.1.08.19.16.25.25.06.1.1.2.13.3.02.1.04.23.04.36 0 .45-.13.78-.4.99-.26.2-.62.3-1.1.3-.48 0-.83-.1-1.04-.31-.21-.21-.32-.52-.32-.91v-.18h.87zM7.78 8.61a2 2 0 0 1 .2-.7c.1-.2.25-.35.44-.46.2-.11.45-.17.77-.17.33 0 .59.06.78.17.19.1.34.26.44.46.1.2.17.43.2.7a8.54 8.54 0 0 1 0 1.8 2 2 0 0 1-.2.7c-.1.2-.25.35-.44.45-.2.1-.45.15-.78.15-.32 0-.58-.05-.77-.15-.19-.1-.34-.26-.44-.45-.1-.2-.17-.43-.2-.7a8.23 8.23 0 0 1 0-1.8zm.84 1.63c.02.2.05.37.09.5.04.12.1.21.18.27a.5.5 0 0 0 .3.09.5.5 0 0 0 .32-.09.56.56 0 0 0 .18-.28c.04-.12.07-.29.08-.49a10.84 10.84 0 0 0 0-1.46c-.01-.2-.04-.37-.08-.5a.55.55 0 0 0-.18-.27.5.5 0 0 0-.31-.1.5.5 0 0 0-.31.1.54.54 0 0 0-.18.27c-.05.13-.07.3-.09.5a10.74 10.74 0 0 0 0 1.46zM13.56 10.3h.02V7.37h.79v4.28h-.98l-1.06-3h-.01v3h-.8V7.37h1z"/></g></svg>